<svg width="16" height="16" viewBox="0 0 16 16" fill="none" xmlns="http://www.w3.org/2000/svg">
<path d="M7.99785 3.89515C5.72636 3.89515 3.89315 5.72836 3.89315 7.99985C3.89315 10.2713 5.72636 12.1045 7.99785 12.1045C10.2693 12.1045 12.1025 10.2713 12.1025 7.99985C12.1025 5.72836 10.2693 3.89515 7.99785 3.89515ZM7.99785 10.6676C6.52888 10.6676 5.3301 9.46882 5.3301 7.99985C5.3301 6.53089 6.52888 5.3321 7.99785 5.3321C9.46681 5.3321 10.6656 6.53089 10.6656 7.99985C10.6656 9.46882 9.46681 10.6676 7.99785 10.6676ZM12.2707 2.77042C11.7403 2.77042 11.312 3.1987 11.312 3.72905C11.312 4.25939 11.7403 4.68767 12.2707 4.68767C12.801 4.68767 13.2293 4.26139 13.2293 3.72905C13.2273 3.1967 12.801 2.77042 12.2707 2.77042ZM15.9991 7.99985C15.9991 6.89513 16.0091 5.80041 15.9471 4.69768C15.885 3.41684 15.5928 2.28009 14.6562 1.34348C13.7176 0.404861 12.5829 0.11467 11.302 0.0526294C10.1973 -0.00941132 9.10258 0.000595279 7.99985 0.000595279C6.89512 0.000595279 5.80041 -0.00941132 4.69768 0.0526294C3.41684 0.11467 2.28009 0.406862 1.34348 1.34348C0.404861 2.28209 0.11467 3.41684 0.0526294 4.69768C-0.00941132 5.80241 0.000595279 6.89713 0.000595279 7.99985C0.000595279 9.10258 -0.00941132 10.1993 0.0526294 11.302C0.11467 12.5829 0.406862 13.7196 1.34348 14.6562C2.28209 15.5948 3.41684 15.885 4.69768 15.9471C5.80241 16.0091 6.89713 15.9991 7.99985 15.9991C9.10458 15.9991 10.1993 16.0091 11.302 15.9471C12.5829 15.885 13.7196 15.5928 14.6562 14.6562C15.5948 13.7176 15.885 12.5829 15.9471 11.302C16.0111 10.1993 15.9991 9.10458 15.9991 7.99985ZM14.238 12.719C14.0919 13.0832 13.9157 13.3554 13.6336 13.6356C13.3514 13.9177 13.0812 14.0939 12.717 14.24C11.6643 14.6582 9.16462 14.5642 7.99785 14.5642C6.83108 14.5642 4.32944 14.6582 3.27675 14.242C2.91251 14.0959 2.64033 13.9197 2.36015 13.6376C2.07796 13.3554 1.90184 13.0852 1.75575 12.721C1.33948 11.6663 1.43354 9.16662 1.43354 7.99985C1.43354 6.83308 1.33948 4.33144 1.75575 3.27875C1.90184 2.91451 2.07796 2.64233 2.36015 2.36215C2.64233 2.08196 2.91251 1.90385 3.27675 1.75775C4.32944 1.34148 6.83108 1.43554 7.99785 1.43554C9.16462 1.43554 11.6663 1.34148 12.719 1.75775C13.0832 1.90385 13.3554 2.07996 13.6356 2.36215C13.9177 2.64433 14.0939 2.91451 14.24 3.27875C14.6562 4.33144 14.5622 6.83308 14.5622 7.99985C14.5622 9.16662 14.6562 11.6663 14.238 12.719Z" fill="black"/>
</svg>
