<svg width="191" height="30" viewBox="0 0 191 30" fill="none" xmlns="http://www.w3.org/2000/svg">
<path d="M0.32 14.92C0.32 12.1467 0.92 9.68 2.12 7.52C3.32 5.33333 4.98667 3.64 7.12 2.44C9.28 1.21333 11.72 0.599998 14.44 0.599998C17.7733 0.599998 20.6267 1.48 23 3.24C25.3733 5 26.96 7.4 27.76 10.44H20.24C19.68 9.26667 18.88 8.37333 17.84 7.76C16.8267 7.14667 15.6667 6.84 14.36 6.84C12.2533 6.84 10.5467 7.57333 9.24 9.04C7.93333 10.5067 7.28 12.4667 7.28 14.92C7.28 17.3733 7.93333 19.3333 9.24 20.8C10.5467 22.2667 12.2533 23 14.36 23C15.6667 23 16.8267 22.6933 17.84 22.08C18.88 21.4667 19.68 20.5733 20.24 19.4H27.76C26.96 22.44 25.3733 24.84 23 26.6C20.6267 28.3333 17.7733 29.2 14.44 29.2C11.72 29.2 9.28 28.6 7.12 27.4C4.98667 26.1733 3.32 24.48 2.12 22.32C0.92 20.16 0.32 17.6933 0.32 14.92ZM56.2688 0.919999V29H49.4288V17.44H38.7888V29H31.9488V0.919999H38.7888V11.92H49.4288V0.919999H56.2688ZM78.6866 24.04H68.2066L66.5266 29H59.3666L69.5266 0.919999H77.4466L87.6066 29H80.3666L78.6866 24.04ZM76.9266 18.76L73.4466 8.48L70.0066 18.76H76.9266ZM110.899 0.919999V6.4H103.459V29H96.6188V6.4H89.1788V0.919999H110.899Z" fill="black" fill-opacity="0.3"/>
<path d="M131.812 24.04H121.332L119.652 29H112.492L122.652 0.919999H130.572L140.732 29H133.492L131.812 24.04ZM130.052 18.76L126.572 8.48L123.132 18.76H130.052ZM165.224 9.96C165.224 11.5867 164.85 13.08 164.104 14.44C163.357 15.7733 162.21 16.8533 160.664 17.68C159.117 18.5067 157.197 18.92 154.904 18.92H150.664V29H143.824V0.919999H154.904C157.144 0.919999 159.037 1.30667 160.584 2.08C162.13 2.85333 163.29 3.92 164.064 5.28C164.837 6.64 165.224 8.2 165.224 9.96ZM154.384 13.48C155.69 13.48 156.664 13.1733 157.304 12.56C157.944 11.9467 158.264 11.08 158.264 9.96C158.264 8.84 157.944 7.97333 157.304 7.36C156.664 6.74667 155.69 6.44 154.384 6.44H150.664V13.48H154.384ZM190.185 9.96C190.185 11.5867 189.811 13.08 189.065 14.44C188.318 15.7733 187.171 16.8533 185.625 17.68C184.078 18.5067 182.158 18.92 179.865 18.92H175.625V29H168.785V0.919999H179.865C182.105 0.919999 183.998 1.30667 185.545 2.08C187.091 2.85333 188.251 3.92 189.025 5.28C189.798 6.64 190.185 8.2 190.185 9.96ZM179.345 13.48C180.651 13.48 181.625 13.1733 182.265 12.56C182.905 11.9467 183.225 11.08 183.225 9.96C183.225 8.84 182.905 7.97333 182.265 7.36C181.625 6.74667 180.651 6.44 179.345 6.44H175.625V13.48H179.345Z" fill="#FD5867"/>
</svg>
