<svg width="106" height="106" viewBox="0 0 106 106" fill="none" xmlns="http://www.w3.org/2000/svg">
<path d="M33.9378 43.7837H14.646C9.30626 43.7837 5 39.4775 5 34.1378V14.846C5 9.50626 9.30626 5.20007 14.646 5.20007H33.9378C39.2775 5.20007 43.5837 9.50626 43.5837 14.846V34.1378C43.5837 39.4775 39.2775 43.7837 33.9378 43.7837Z" stroke="white" stroke-width="9" stroke-linecap="round" stroke-linejoin="round"/>
<path d="M91.3543 43.7837H72.0625C66.7228 43.7837 62.4165 39.4775 62.4165 34.1378V14.846C62.4165 9.50626 66.7228 5.20007 72.0625 5.20007H91.3543C96.694 5.20007 101 9.50626 101 14.846V34.1378C101 39.4775 96.694 43.7837 91.3543 43.7837Z" stroke="white" stroke-width="9" stroke-linecap="round" stroke-linejoin="round"/>
<path d="M33.9378 101.2H14.646C9.30626 101.2 5 96.8939 5 91.5542V72.2624C5 66.9226 9.30626 62.6165 14.646 62.6165H33.9378C39.2775 62.6165 43.5837 66.9226 43.5837 72.2624V91.5542C43.5837 96.8939 39.2775 101.2 33.9378 101.2Z" stroke="white" stroke-width="9" stroke-linecap="round" stroke-linejoin="round"/>
<path d="M91.3543 101.2H72.0625C66.7228 101.2 62.4165 96.8939 62.4165 91.5542V72.2624C62.4165 66.9226 66.7228 62.6165 72.0625 62.6165H91.3543C96.694 62.6165 101 66.9226 101 72.2624V91.5542C101 96.8939 96.694 101.2 91.3543 101.2Z" stroke="white" stroke-width="9" stroke-linecap="round" stroke-linejoin="round"/>
</svg>
