<svg width="96" height="97" viewBox="0 0 96 97" fill="none" xmlns="http://www.w3.org/2000/svg">
<path d="M76.7595 19.6003H84.9995" stroke="white" stroke-width="9" stroke-linecap="round" stroke-linejoin="round"/>
<path d="M10.9995 19.6003H60.3195" stroke="white" stroke-width="9" stroke-linecap="round" stroke-linejoin="round"/>
<path d="M68.5599 27.7603C73.1108 27.7603 76.7999 24.107 76.7999 19.6003C76.7999 15.0937 73.1108 11.4403 68.5599 11.4403C64.0091 11.4403 60.3198 15.0937 60.3198 19.6003C60.3198 24.107 64.0091 27.7603 68.5599 27.7603Z" stroke="white" stroke-width="9" stroke-linecap="round" stroke-linejoin="round"/>
<path d="M76.7595 76.8H84.9995" stroke="white" stroke-width="9" stroke-linecap="round" stroke-linejoin="round"/>
<path d="M10.9995 76.8H60.3195" stroke="white" stroke-width="9" stroke-linecap="round" stroke-linejoin="round"/>
<path d="M68.5597 84.9604C73.1105 84.9604 76.7997 81.307 76.7997 76.8004C76.7997 72.2937 73.1105 68.6404 68.5597 68.6404C64.0089 68.6404 60.3196 72.2937 60.3196 76.8004C60.3196 81.307 64.0089 84.9604 68.5597 84.9604Z" stroke="white" stroke-width="9" stroke-linecap="round" stroke-linejoin="round"/>
<path d="M35.6792 48.2001H84.9992" stroke="white" stroke-width="9" stroke-linecap="round" stroke-linejoin="round"/>
<path d="M10.9995 48.2001H19.2395" stroke="white" stroke-width="9" stroke-linecap="round" stroke-linejoin="round"/>
<path d="M27.4399 56.3604C31.9908 56.3604 35.6801 52.7071 35.6801 48.2004C35.6801 43.6938 31.9908 40.0404 27.4399 40.0404C22.8891 40.0404 19.2 43.6938 19.2 48.2004C19.2 52.7071 22.8891 56.3604 27.4399 56.3604Z" stroke="white" stroke-width="9" stroke-linecap="round" stroke-linejoin="round"/>
</svg>
