<svg width="98" height="118" viewBox="0 0 98 118" fill="none" xmlns="http://www.w3.org/2000/svg">
<path d="M95.3971 18.9486L50.7531 0.354177C49.637 -0.118059 48.4621 -0.118059 47.346 0.354177L2.70217 18.9486C1.0574 19.657 0 21.2508 0 23.0217V44.8036C0 76.3254 18.5624 104.954 47.2285 117.646C47.816 117.882 48.4034 118 48.9908 118C49.5782 118 50.2244 117.882 50.7531 117.646C79.4779 104.954 97.9817 76.3254 97.9817 44.8036V23.0217C98.158 21.2508 97.0418 19.657 95.3971 18.9486Z" fill="white"/>
<path d="M49.2772 81.7948C36.727 81.7948 26.5591 71.6269 26.5591 59.0767C26.5591 46.5265 36.727 36.3586 49.2772 36.3586C61.8274 36.3586 71.9953 46.5265 71.9953 59.0767C71.9953 71.6269 61.8274 81.7948 49.2772 81.7948Z" stroke="#80FF8C" stroke-width="5" stroke-linecap="round" stroke-linejoin="round"/>
<path d="M48.1478 62.9571L43.8252 58.6345" stroke="#80FF8C" stroke-width="5" stroke-linecap="round" stroke-linejoin="round"/>
<path d="M56.7929 54.312L48.1477 62.9572" stroke="#80FF8C" stroke-width="5" stroke-linecap="round" stroke-linejoin="round"/>
</svg>
