<svg width="16" height="13" viewBox="0 0 16 13" fill="none" xmlns="http://www.w3.org/2000/svg">
<path d="M16 1.54405C15.4116 1.79786 14.7713 1.98053 14.1118 2.05168C14.7925 1.64596 15.3097 1.00565 15.5539 0.244201C14.9251 0.619156 14.2137 0.894123 13.4734 1.03641C12.8735 0.396106 12.0216 0 11.0775 0C9.26043 0 7.79906 1.4729 7.79906 3.28038C7.79906 3.53419 7.82983 3.78801 7.87982 4.03221C5.159 3.88992 2.73236 2.59007 1.1191 0.599928C0.834515 1.08833 0.672996 1.64596 0.672996 2.2555C0.672996 3.39382 1.25177 4.39755 2.13436 4.98786C1.59596 4.96671 1.08833 4.81481 0.651845 4.57061V4.61098C0.651845 6.20502 1.77863 7.52602 3.28038 7.82983C3.00541 7.90097 2.71121 7.94135 2.41702 7.94135C2.20358 7.94135 2.00168 7.9202 1.79786 7.89136C2.2132 9.1912 3.42267 10.1353 4.86288 10.1661C3.73609 11.0487 2.32472 11.5678 0.792213 11.5678C0.517246 11.5678 0.26343 11.5582 0 11.5275C1.45367 12.46 3.17846 12.9984 5.03593 12.9984C11.066 12.9984 14.3656 8.00289 14.3656 3.66687C14.3656 3.52458 14.3656 3.38229 14.356 3.24C14.9944 2.77274 15.5539 2.19397 16 1.54405Z" fill="black"/>
</svg>
